<mxfile host="app.diagrams.net" modified="2021-06-29T09:59:09.332Z" agent="5.0 (Windows NT 6.1; Win64; x64) AppleWebKit/537.36 (KHTML, like Gecko) Chrome/91.0.4472.124 Safari/537.36" etag="JJJ4jdfD43UQGCshyoT1" version="14.8.1" type="github">
  <diagram id="qh1y3lwqFN0wsPJczXSy" name="Page-1">
    <mxGraphModel dx="1342" dy="582" grid="1" gridSize="10" guides="1" tooltips="1" connect="1" arrows="1" fold="1" page="1" pageScale="1" pageWidth="827" pageHeight="1169" math="0" shadow="0">
      <root>
        <mxCell id="0" />
        <mxCell id="1" parent="0" />
        <mxCell id="0yapBrsotgh8a4GhIQlQ-3" value="Actor" style="shape=umlActor;verticalLabelPosition=bottom;verticalAlign=top;html=1;outlineConnect=0;fillColor=#3333FF;" vertex="1" parent="1">
          <mxGeometry x="170" y="430" width="60" height="130" as="geometry" />
        </mxCell>
        <mxCell id="0yapBrsotgh8a4GhIQlQ-7" value="" style="line;strokeWidth=2;direction=south;html=1;" vertex="1" parent="1">
          <mxGeometry x="170" y="470" width="10" height="70" as="geometry" />
        </mxCell>
        <mxCell id="0yapBrsotgh8a4GhIQlQ-8" value="" style="line;strokeWidth=2;direction=south;html=1;fillColor=#0000FF;" vertex="1" parent="1">
          <mxGeometry x="220" y="470" width="10" height="70" as="geometry" />
        </mxCell>
        <mxCell id="0yapBrsotgh8a4GhIQlQ-10" value="" style="line;strokeWidth=4;html=1;perimeter=backbonePerimeter;points=[];outlineConnect=0;" vertex="1" parent="1">
          <mxGeometry x="120" y="560" width="160" height="10" as="geometry" />
        </mxCell>
        <mxCell id="0yapBrsotgh8a4GhIQlQ-11" value="" style="shape=display;whiteSpace=wrap;html=1;strokeColor=#b85450;fillColor=#f8cecc;" vertex="1" parent="1">
          <mxGeometry x="60" y="540" width="80" height="40" as="geometry" />
        </mxCell>
        <mxCell id="0yapBrsotgh8a4GhIQlQ-15" value="" style="endArrow=none;html=1;strokeColor=#009900;" edge="1" parent="1" target="0yapBrsotgh8a4GhIQlQ-16">
          <mxGeometry width="50" height="50" relative="1" as="geometry">
            <mxPoint y="1130" as="sourcePoint" />
            <mxPoint x="820" y="1150" as="targetPoint" />
            <Array as="points">
              <mxPoint y="1160" />
              <mxPoint x="100" y="1160" />
              <mxPoint x="780" y="1160" />
            </Array>
          </mxGeometry>
        </mxCell>
        <mxCell id="0yapBrsotgh8a4GhIQlQ-16" value="" style="line;strokeWidth=2;html=1;direction=south;" vertex="1" parent="1">
          <mxGeometry x="810" y="990" width="10" height="160" as="geometry" />
        </mxCell>
        <mxCell id="0yapBrsotgh8a4GhIQlQ-18" value="" style="verticalLabelPosition=bottom;verticalAlign=top;html=1;shape=mxgraph.basic.smiley;strokeColor=#000000;fillColor=#0000FF;" vertex="1" parent="1">
          <mxGeometry x="182.5" y="430" width="35" height="40" as="geometry" />
        </mxCell>
        <mxCell id="0yapBrsotgh8a4GhIQlQ-21" value="" style="line;strokeWidth=2;direction=south;html=1;fillColor=#0000FF;" vertex="1" parent="1">
          <mxGeometry x="10" y="760" width="10" height="160" as="geometry" />
        </mxCell>
        <mxCell id="0yapBrsotgh8a4GhIQlQ-23" value="" style="shape=switch;whiteSpace=wrap;html=1;strokeColor=#000000;fillColor=#0000FF;" vertex="1" parent="1">
          <mxGeometry x="720" y="1090" width="60" height="60" as="geometry" />
        </mxCell>
        <mxCell id="0yapBrsotgh8a4GhIQlQ-24" value="" style="shape=switch;whiteSpace=wrap;html=1;strokeColor=#000000;fillColor=#0000FF;" vertex="1" parent="1">
          <mxGeometry x="490" y="1100" width="60" height="60" as="geometry" />
        </mxCell>
        <mxCell id="0yapBrsotgh8a4GhIQlQ-25" value="" style="shape=switch;whiteSpace=wrap;html=1;strokeColor=#000000;fillColor=#0000FF;" vertex="1" parent="1">
          <mxGeometry x="414" y="1100" width="60" height="60" as="geometry" />
        </mxCell>
        <mxCell id="0yapBrsotgh8a4GhIQlQ-26" value="" style="shape=switch;whiteSpace=wrap;html=1;strokeColor=#000000;fillColor=#0000FF;" vertex="1" parent="1">
          <mxGeometry x="600" y="1100" width="60" height="60" as="geometry" />
        </mxCell>
        <mxCell id="0yapBrsotgh8a4GhIQlQ-27" value="" style="shape=switch;whiteSpace=wrap;html=1;strokeColor=#000000;fillColor=#0000FF;" vertex="1" parent="1">
          <mxGeometry x="340" y="1100" width="60" height="60" as="geometry" />
        </mxCell>
        <mxCell id="0yapBrsotgh8a4GhIQlQ-28" value="" style="shape=switch;whiteSpace=wrap;html=1;strokeColor=#000000;fillColor=#0000FF;" vertex="1" parent="1">
          <mxGeometry x="250" y="1100" width="60" height="60" as="geometry" />
        </mxCell>
        <mxCell id="0yapBrsotgh8a4GhIQlQ-31" style="rounded=0;orthogonalLoop=1;jettySize=auto;html=1;strokeColor=#FF1736;" edge="1" parent="1" source="0yapBrsotgh8a4GhIQlQ-29">
          <mxGeometry relative="1" as="geometry">
            <mxPoint x="190" y="1150" as="targetPoint" />
            <Array as="points">
              <mxPoint x="180" y="850" />
            </Array>
          </mxGeometry>
        </mxCell>
        <mxCell id="0yapBrsotgh8a4GhIQlQ-29" value="" style="shape=switch;whiteSpace=wrap;html=1;strokeColor=#000000;fillColor=#0000FF;" vertex="1" parent="1">
          <mxGeometry x="20" y="820" width="60" height="60" as="geometry" />
        </mxCell>
        <mxCell id="0yapBrsotgh8a4GhIQlQ-32" value="" style="rounded=1;whiteSpace=wrap;html=1;strokeWidth=2;fillWeight=4;hachureGap=8;hachureAngle=45;fillColor=#1ba1e2;sketch=1;" vertex="1" parent="1">
          <mxGeometry x="10" y="10" width="810" height="160" as="geometry" />
        </mxCell>
        <mxCell id="0yapBrsotgh8a4GhIQlQ-50" style="edgeStyle=none;rounded=0;orthogonalLoop=1;jettySize=auto;html=1;strokeColor=#009900;entryX=0.468;entryY=0.2;entryDx=0;entryDy=0;entryPerimeter=0;" edge="1" parent="1" target="0yapBrsotgh8a4GhIQlQ-49">
          <mxGeometry relative="1" as="geometry">
            <mxPoint x="389" y="660" as="targetPoint" />
            <mxPoint x="391.18292682926835" y="600" as="sourcePoint" />
          </mxGeometry>
        </mxCell>
        <mxCell id="0yapBrsotgh8a4GhIQlQ-49" value="" style="line;strokeWidth=2;html=1;fillColor=#0000FF;" vertex="1" parent="1">
          <mxGeometry x="10" y="670" width="810" height="10" as="geometry" />
        </mxCell>
        <mxCell id="0yapBrsotgh8a4GhIQlQ-54" value="" style="shape=ext;double=1;whiteSpace=wrap;html=1;aspect=fixed;strokeColor=#000000;fillColor=#FFFFFF;" vertex="1" parent="1">
          <mxGeometry x="380" y="570" width="30" height="30" as="geometry" />
        </mxCell>
        <mxCell id="0yapBrsotgh8a4GhIQlQ-55" value="" style="shape=image;html=1;verticalLabelPosition=bottom;verticalAlign=top;imageAspect=1;aspect=fixed;image=img/clipart/Gear_128x128.png;strokeColor=#000000;fillColor=#FFFFFF;" vertex="1" parent="1">
          <mxGeometry x="387.21" y="575" width="15.57" height="18.27" as="geometry" />
        </mxCell>
        <mxCell id="0yapBrsotgh8a4GhIQlQ-56" value="" style="verticalLabelPosition=bottom;verticalAlign=top;html=1;shape=mxgraph.basic.sun;strokeColor=#000000;fillColor=#FFFF99;" vertex="1" parent="1">
          <mxGeometry x="700" width="100" height="100" as="geometry" />
        </mxCell>
      </root>
    </mxGraphModel>
  </diagram>
</mxfile>
